<svg width="28" height="28" viewBox="0 0 28 28" fill="none" xmlns="http://www.w3.org/2000/svg">
<path d="M13.9998 10.5V15.1667M13.9998 19.8334H14.0114M12.3843 4.54037L2.78859 21.1148C2.25635 22.0341 1.99023 22.4937 2.02957 22.871C2.06387 23.2001 2.23627 23.4991 2.50385 23.6936C2.81064 23.9167 3.34178 23.9167 4.40406 23.9167H23.5955C24.6577 23.9167 25.1889 23.9167 25.4957 23.6936C25.7632 23.4991 25.9356 23.2001 25.9699 22.871C26.0093 22.4937 25.7432 22.0341 25.2109 21.1148L15.6152 4.54036C15.0849 3.62434 14.8197 3.16633 14.4738 3.0125C14.172 2.87832 13.8275 2.87832 13.5257 3.0125C13.1798 3.16633 12.9146 3.62434 12.3843 4.54037Z" stroke-width="2" stroke-linecap="round" stroke-linejoin="round"/>
</svg>
