<svg width="336" height="189" viewBox="0 0 336 189" fill="none" xmlns="http://www.w3.org/2000/svg">
<path d="M113.833 70.1347C112.459 63.934 116.371 57.7929 122.572 56.4182L192.865 40.8346C199.066 39.4599 205.207 43.3722 206.582 49.5729L222.165 119.866C223.54 126.067 219.628 132.208 213.427 133.583L143.134 149.166C136.933 150.541 130.792 146.629 129.417 140.428L113.833 70.1347Z" />
<path d="M85.2085 51.8977C83.8338 45.697 87.7461 39.5559 93.9468 38.1812L211.102 12.2085C217.303 10.8338 223.444 14.7461 224.819 20.9468L250.792 138.102C252.166 144.303 248.254 150.444 242.053 151.819L124.898 177.792C118.697 179.166 112.556 175.254 111.181 169.053L85.2085 51.8977Z" />
<path d="M56.5835 33.6606C55.2088 27.4598 59.1211 21.3188 65.3218 19.9441L229.34 -16.4178C235.54 -17.7924 241.681 -13.8801 243.056 -7.67941L279.418 156.338C280.793 162.539 276.88 168.68 270.68 170.055L106.662 206.417C100.461 207.791 94.32 203.879 92.9453 197.678L56.5835 33.6606Z" />
<path d="M27.9594 15.4235C26.5848 9.22277 30.4971 3.0817 36.6978 1.70703L247.578 -45.0439C253.778 -46.4186 259.92 -42.5063 261.294 -36.3056L308.045 174.574C309.42 180.775 305.508 186.916 299.307 188.291L88.4269 235.042C82.2261 236.416 76.0851 232.504 74.7104 226.303L27.9594 15.4235Z" />
<path d="M-0.665552 -2.81344C-2.04022 -9.01416 1.87207 -15.1552 8.0728 -16.5299L265.815 -73.67C272.016 -75.0446 278.157 -71.1323 279.531 -64.9316L336.671 192.811C338.046 199.011 334.134 205.152 327.933 206.527L70.191 263.667C63.9902 265.042 57.8492 261.129 56.4745 254.929L-0.665552 -2.81344Z" />
<path d="M-29.2906 -21.0504C-30.6652 -27.2511 -26.7529 -33.3922 -20.5522 -34.7668L284.052 -102.296C290.253 -103.671 296.394 -99.7584 297.769 -93.5577L365.298 211.047C366.672 217.247 362.76 223.388 356.559 224.763L51.9551 292.292C45.7543 293.667 39.6133 289.755 38.2386 283.554L-29.2906 -21.0504Z" />
</svg>
