<svg width="28" height="28" viewBox="0 0 28 28" fill="none" xmlns="http://www.w3.org/2000/svg">
<path d="M10.5 14L12.8334 16.3333L18.0834 11.0833M8.5561 4.45515C9.49391 4.38032 10.3842 4.01154 11.1003 3.40133C12.7712 1.97735 15.2289 1.97735 16.8998 3.40133C17.6159 4.01154 18.5062 4.38032 19.444 4.45515C21.6324 4.6298 23.3703 6.36761 23.5449 8.55607C23.6197 9.49388 23.9885 10.3842 24.5987 11.1002C26.0227 12.7712 26.0227 15.2288 24.5987 16.8998C23.9885 17.6158 23.6197 18.5061 23.5449 19.4439C23.3703 21.6324 21.6324 23.3702 19.444 23.5449C18.5062 23.6197 17.6159 23.9885 16.8998 24.5987C15.2289 26.0227 12.7712 26.0227 11.1003 24.5987C10.3842 23.9885 9.49391 23.6197 8.5561 23.5449C6.36764 23.3702 4.62983 21.6324 4.45519 19.4439C4.38035 18.5061 4.01157 17.6158 3.40136 16.8998C1.97738 15.2288 1.97738 12.7712 3.40136 11.1002C4.01157 10.3842 4.38035 9.49388 4.45519 8.55607C4.62983 6.36761 6.36764 4.6298 8.5561 4.45515Z"/>
</svg>
