<svg width="429" height="136" viewBox="0 0 429 136" fill="none" xmlns="http://www.w3.org/2000/svg">
<circle cx="213.5" cy="64" r="64" fill="#EAECF0"/>
<circle cx="147.5" cy="20" r="6" fill="#F2F4F7"/>
<circle cx="144.5" cy="112" r="8" fill="#F2F4F7"/>
<circle cx="287.5" cy="36" r="8" fill="#F2F4F7"/>
<circle cx="276.5" cy="9" r="5" fill="#F2F4F7"/>
<g filter="url(#filter0_dd_2091_11848)">
<path d="M215.5 16C202.034 16 190.122 22.6541 182.873 32.8536C180.506 32.2954 178.038 32 175.5 32C157.827 32 143.5 46.3269 143.5 64C143.5 81.6731 157.827 96 175.5 96H255.5C270.964 96 283.5 83.464 283.5 68C283.5 52.536 270.964 40 255.5 40C254.402 40 253.318 40.0633 252.252 40.1863C246.123 25.9596 231.975 16 215.5 16Z" fill="#F9FAFB"/>
<circle cx="175.5" cy="64" r="32" fill="url(#paint0_linear_2091_11848)"/>
<circle cx="215.5" cy="56" r="40" fill="url(#paint1_linear_2091_11848)"/>
<circle cx="255.5" cy="68" r="28" fill="url(#paint2_linear_2091_11848)"/>
</g>
<path d="M185.5 88C185.5 72.536 198.036 60 213.5 60V60C228.964 60 241.5 72.536 241.5 88V88C241.5 103.464 228.964 116 213.5 116V116C198.036 116 185.5 103.464 185.5 88V88Z" fill="#344054" fill-opacity="0.4"/>
<path d="M224 98.5L219.917 94.4167M222.833 87.4167C222.833 92.8935 218.393 97.3333 212.917 97.3333C207.44 97.3333 203 92.8935 203 87.4167C203 81.9398 207.44 77.5 212.917 77.5C218.393 77.5 222.833 81.9398 222.833 87.4167Z" stroke="white" stroke-width="2" stroke-linecap="round" stroke-linejoin="round"/>
<defs>
<filter id="filter0_dd_2091_11848" x="123.5" y="16" width="180" height="120" filterUnits="userSpaceOnUse" color-interpolation-filters="sRGB">
<feFlood flood-opacity="0" result="BackgroundImageFix"/>
<feColorMatrix in="SourceAlpha" type="matrix" values="0 0 0 0 0 0 0 0 0 0 0 0 0 0 0 0 0 0 127 0" result="hardAlpha"/>
<feMorphology radius="4" operator="erode" in="SourceAlpha" result="effect1_dropShadow_2091_11848"/>
<feOffset dy="8"/>
<feGaussianBlur stdDeviation="4"/>
<feComposite in2="hardAlpha" operator="out"/>
<feColorMatrix type="matrix" values="0 0 0 0 0.0627451 0 0 0 0 0.0941176 0 0 0 0 0.156863 0 0 0 0.03 0"/>
<feBlend mode="normal" in2="BackgroundImageFix" result="effect1_dropShadow_2091_11848"/>
<feColorMatrix in="SourceAlpha" type="matrix" values="0 0 0 0 0 0 0 0 0 0 0 0 0 0 0 0 0 0 127 0" result="hardAlpha"/>
<feMorphology radius="4" operator="erode" in="SourceAlpha" result="effect2_dropShadow_2091_11848"/>
<feOffset dy="20"/>
<feGaussianBlur stdDeviation="12"/>
<feComposite in2="hardAlpha" operator="out"/>
<feColorMatrix type="matrix" values="0 0 0 0 0.0627451 0 0 0 0 0.0941176 0 0 0 0 0.156863 0 0 0 0.08 0"/>
<feBlend mode="normal" in2="effect1_dropShadow_2091_11848" result="effect2_dropShadow_2091_11848"/>
<feBlend mode="normal" in="SourceGraphic" in2="effect2_dropShadow_2091_11848" result="shape"/>
</filter>
<linearGradient id="paint0_linear_2091_11848" x1="150.929" y1="42.8571" x2="207.5" y2="96" gradientUnits="userSpaceOnUse">
<stop stop-color="#D0D5DD"/>
<stop offset="0.350715" stop-color="white" stop-opacity="0"/>
</linearGradient>
<linearGradient id="paint1_linear_2091_11848" x1="184.786" y1="29.5714" x2="255.5" y2="95.9999" gradientUnits="userSpaceOnUse">
<stop stop-color="#D0D5DD"/>
<stop offset="0.350715" stop-color="white" stop-opacity="0"/>
</linearGradient>
<linearGradient id="paint2_linear_2091_11848" x1="234" y1="49.5" x2="283.5" y2="96" gradientUnits="userSpaceOnUse">
<stop stop-color="#D0D5DD"/>
<stop offset="0.350715" stop-color="white" stop-opacity="0"/>
</linearGradient>
</defs>
</svg>
