<svg width="17" height="16" viewBox="0 0 17 16" fill="none" xmlns="http://www.w3.org/2000/svg">
<path d="M7.66196 3.39488C7.9329 3.35482 8.2124 3.33333 8.50028 3.33333C11.9036 3.33333 14.1369 6.33656 14.8871 7.52455C14.9779 7.66833 15.0233 7.74023 15.0488 7.85112C15.0678 7.93439 15.0678 8.06578 15.0487 8.14905C15.0233 8.25993 14.9776 8.3323 14.8861 8.47705C14.6862 8.79343 14.3814 9.23807 13.9777 9.7203M4.98288 4.47669C3.5415 5.45447 2.56297 6.81292 2.11407 7.52352C2.02286 7.66791 1.97725 7.74011 1.95183 7.85099C1.93273 7.93426 1.93272 8.06563 1.95181 8.14891C1.97722 8.25979 2.02262 8.33168 2.11342 8.47545C2.86369 9.66344 5.09694 12.6667 8.50028 12.6667C9.87255 12.6667 11.0546 12.1784 12.0259 11.5177M2.50028 2L14.5003 14M7.08606 6.58579C6.72413 6.94772 6.50028 7.44772 6.50028 8C6.50028 9.10457 7.39571 10 8.50028 10C9.05256 10 9.55256 9.77614 9.91449 9.41421" />
</svg>
