<svg width="17" height="16" viewBox="0 0 17 16" fill="none" xmlns="http://www.w3.org/2000/svg">
<g clip-path="url(#clip0_2150_2092)">
<path d="M2.11342 8.47543C2.02262 8.33167 1.97723 8.25979 1.95182 8.14892C1.93273 8.06565 1.93273 7.93431 1.95182 7.85104C1.97723 7.74017 2.02262 7.66829 2.11341 7.52453C2.86369 6.33654 5.09693 3.33331 8.50027 3.33331C11.9036 3.33331 14.1369 6.33654 14.8871 7.52453C14.9779 7.66829 15.0233 7.74017 15.0487 7.85104C15.0678 7.93431 15.0678 8.06565 15.0487 8.14892C15.0233 8.25979 14.9779 8.33167 14.8871 8.47543C14.1369 9.66342 11.9036 12.6666 8.50027 12.6666C5.09693 12.6666 2.86369 9.66342 2.11342 8.47543Z" />
<path d="M8.50027 9.99998C9.60484 9.99998 10.5003 9.10455 10.5003 7.99998C10.5003 6.89541 9.60484 5.99998 8.50027 5.99998C7.3957 5.99998 6.50027 6.89541 6.50027 7.99998C6.50027 9.10455 7.3957 9.99998 8.50027 9.99998Z" />
</g>
<defs>
<clipPath id="clip0_2150_2092">
<rect width="16" height="16" fill="white" transform="translate(0.5)"/>
</clipPath>
</defs>
</svg>
