<svg width="29" height="28" viewBox="0 0 29 28" fill="none" xmlns="http://www.w3.org/2000/svg">
<path d="M9.83333 3.5H9.6C7.63982 3.5 6.65972 3.5 5.91103 3.88148C5.25247 4.21703 4.71703 4.75247 4.38148 5.41103C4 6.15972 4 7.13982 4 9.1V9.33333M9.83333 24.5H9.6C7.63982 24.5 6.65972 24.5 5.91103 24.1185C5.25247 23.783 4.71703 23.2475 4.38148 22.589C4 21.8403 4 20.8602 4 18.9V18.6667M25 9.33333V9.1C25 7.13982 25 6.15972 24.6185 5.41103C24.283 4.75247 23.7475 4.21703 23.089 3.88148C22.3403 3.5 21.3602 3.5 19.4 3.5H19.1667M25 18.6667V18.9C25 20.8602 25 21.8403 24.6185 22.589C24.283 23.2475 23.7475 23.783 23.089 24.1185C22.3403 24.5 21.3602 24.5 19.4 24.5H19.1667M9.25 9.33333V11.0833M19.75 9.33333V11.0833M13.3333 14.7001C14.2667 14.7001 15.0833 13.8834 15.0833 12.9501V9.33333M18.2336 17.7333C16.1336 19.8333 12.7502 19.8333 10.6502 17.7333"  stroke-width="2" stroke-linecap="round" stroke-linejoin="round"/>
</svg>
