<svg width="28" height="28" viewBox="0 0 28 28" fill="none" xmlns="http://www.w3.org/2000/svg">
<path d="M2.91659 14H6.86221C7.66162 14 8.39241 14.4516 8.74992 15.1667C9.10742 15.8817 9.83822 16.3333 10.6376 16.3333H17.3622C18.1616 16.3333 18.8924 15.8817 19.2499 15.1667C19.6074 14.4516 20.3382 14 21.1376 14H25.0833M10.4609 4.66666H17.5389C18.7953 4.66666 19.4235 4.66666 19.978 4.85795C20.4685 5.02711 20.9152 5.30319 21.2858 5.66619C21.7049 6.07669 21.9859 6.63856 22.5477 7.76226L25.0754 12.8176C25.2959 13.2586 25.4061 13.479 25.4839 13.7101C25.5529 13.9153 25.6028 14.1265 25.6328 14.341C25.6666 14.5824 25.6666 14.8289 25.6666 15.322V17.7333C25.6666 19.6935 25.6666 20.6736 25.2851 21.4223C24.9495 22.0809 24.4141 22.6163 23.7556 22.9518C23.0069 23.3333 22.0268 23.3333 20.0666 23.3333H7.93325C5.97307 23.3333 4.99298 23.3333 4.24429 22.9518C3.58572 22.6163 3.05029 22.0809 2.71473 21.4223C2.33325 20.6736 2.33325 19.6935 2.33325 17.7333V15.322C2.33325 14.8289 2.33325 14.5824 2.36706 14.341C2.39708 14.1265 2.44693 13.9153 2.51598 13.7101C2.59372 13.4791 2.70397 13.2586 2.92446 12.8176L5.45212 7.76226C6.01397 6.63855 6.2949 6.07669 6.71402 5.66619C7.08465 5.30319 7.53135 5.02711 8.02179 4.85795C8.57638 4.66666 9.20456 4.66666 10.4609 4.66666Z"/>
</svg>
