<svg width="19" height="15" viewBox="0 0 19 15" fill="none" xmlns="http://www.w3.org/2000/svg">
<path d="M0.833405 3.33334L7.6375 8.09621C8.18848 8.4819 8.46397 8.67474 8.76362 8.74943C9.02832 8.81541 9.30516 8.81541 9.56985 8.74943C9.86951 8.67474 10.145 8.4819 10.696 8.09621L17.5001 3.33334M4.8334 14.1667H13.5001C14.9002 14.1667 15.6003 14.1667 16.135 13.8942C16.6055 13.6545 16.9879 13.2721 17.2276 12.8017C17.5001 12.2669 17.5001 11.5668 17.5001 10.1667V4.83334C17.5001 3.43321 17.5001 2.73315 17.2276 2.19837C16.9879 1.72796 16.6055 1.34551 16.135 1.10583C15.6003 0.833344 14.9002 0.833344 13.5001 0.833344H4.8334C3.43327 0.833344 2.73321 0.833344 2.19843 1.10583C1.72802 1.34551 1.34557 1.72796 1.10589 2.19837C0.833405 2.73315 0.833405 3.43321 0.833405 4.83334V10.1667C0.833405 11.5668 0.833405 12.2669 1.10589 12.8017C1.34557 13.2721 1.72802 13.6545 2.19843 13.8942C2.73321 14.1667 3.43327 14.1667 4.8334 14.1667Z" stroke="#414141" stroke-width="1.66667" stroke-linecap="round" stroke-linejoin="round"/>
</svg>
