<svg width="28" height="28" viewBox="0 0 28 28" fill="none" xmlns="http://www.w3.org/2000/svg">
<path d="M25.6667 12.8333V9.56668C25.6667 8.25989 25.6667 7.60649 25.4124 7.10737C25.1887 6.66832 24.8317 6.31137 24.3927 6.08766C23.8936 5.83334 23.2402 5.83334 21.9334 5.83334H6.06671C4.75992 5.83334 4.10652 5.83334 3.6074 6.08766C3.16835 6.31137 2.8114 6.66832 2.58769 7.10737C2.33337 7.60649 2.33337 8.25989 2.33337 9.56668V13.7667C2.33337 15.0735 2.33337 15.7269 2.58769 16.226C2.8114 16.665 3.16835 17.022 3.6074 17.2457C4.10652 17.5 4.75992 17.5 6.06671 17.5H12.8334M14 11.6667H14.0059M19.8334 11.6667H19.8392M8.16671 11.6667H8.17254M22.4584 19.8333V17.7917C22.4584 16.6641 21.5443 15.75 20.4167 15.75C19.2891 15.75 18.375 16.6641 18.375 17.7917V19.8333M14.2917 11.6667C14.2917 11.8278 14.1611 11.9583 14 11.9583C13.839 11.9583 13.7084 11.8278 13.7084 11.6667C13.7084 11.5056 13.839 11.375 14 11.375C14.1611 11.375 14.2917 11.5056 14.2917 11.6667ZM20.125 11.6667C20.125 11.8278 19.9945 11.9583 19.8334 11.9583C19.6723 11.9583 19.5417 11.8278 19.5417 11.6667C19.5417 11.5056 19.6723 11.375 19.8334 11.375C19.9945 11.375 20.125 11.5056 20.125 11.6667ZM8.45837 11.6667C8.45837 11.8278 8.32779 11.9583 8.16671 11.9583C8.00562 11.9583 7.87504 11.8278 7.87504 11.6667C7.87504 11.5056 8.00562 11.375 8.16671 11.375C8.32779 11.375 8.45837 11.5056 8.45837 11.6667ZM18.2 24.5H22.6334C23.2868 24.5 23.6135 24.5 23.863 24.3729C24.0826 24.261 24.261 24.0825 24.3729 23.863C24.5 23.6134 24.5 23.2867 24.5 22.6333V21.7C24.5 21.0466 24.5 20.7199 24.3729 20.4704C24.261 20.2508 24.0826 20.0724 23.863 19.9605C23.6135 19.8333 23.2868 19.8333 22.6334 19.8333H18.2C17.5466 19.8333 17.2199 19.8333 16.9704 19.9605C16.7509 20.0724 16.5724 20.2508 16.4605 20.4704C16.3334 20.7199 16.3334 21.0466 16.3334 21.7V22.6333C16.3334 23.2867 16.3334 23.6134 16.4605 23.863C16.5724 24.0825 16.7509 24.261 16.9704 24.3729C17.2199 24.5 17.5466 24.5 18.2 24.5Z"/>
</svg>
