<svg width="28" height="28" viewBox="0 0 28 28" fill="none" xmlns="http://www.w3.org/2000/svg">
<path d="M14 14H14.0058M19.8333 14H19.8392M8.16666 14H8.17249M6.06666 8.16666H21.9333C23.2401 8.16666 23.8935 8.16666 24.3926 8.42097C24.8317 8.64468 25.1886 9.00163 25.4123 9.44068C25.6667 9.93981 25.6667 10.5932 25.6667 11.9V16.1C25.6667 17.4068 25.6667 18.0602 25.4123 18.5593C25.1886 18.9983 24.8317 19.3553 24.3926 19.579C23.8935 19.8333 23.2401 19.8333 21.9333 19.8333H6.06666C4.75987 19.8333 4.10648 19.8333 3.60735 19.579C3.16831 19.3553 2.81135 18.9983 2.58765 18.5593C2.33333 18.0602 2.33333 17.4068 2.33333 16.1V11.9C2.33333 10.5932 2.33333 9.93981 2.58765 9.44068C2.81135 9.00163 3.16831 8.64468 3.60735 8.42097C4.10648 8.16666 4.75987 8.16666 6.06666 8.16666ZM14.2917 14C14.2917 14.1611 14.1611 14.2917 14 14.2917C13.8389 14.2917 13.7083 14.1611 13.7083 14C13.7083 13.8389 13.8389 13.7083 14 13.7083C14.1611 13.7083 14.2917 13.8389 14.2917 14ZM20.125 14C20.125 14.1611 19.9944 14.2917 19.8333 14.2917C19.6722 14.2917 19.5417 14.1611 19.5417 14C19.5417 13.8389 19.6722 13.7083 19.8333 13.7083C19.9944 13.7083 20.125 13.8389 20.125 14ZM8.45833 14C8.45833 14.1611 8.32774 14.2917 8.16666 14.2917C8.00558 14.2917 7.87499 14.1611 7.87499 14C7.87499 13.8389 8.00558 13.7083 8.16666 13.7083C8.32774 13.7083 8.45833 13.8389 8.45833 14Z"/>
</svg>
