<svg width="18" height="18" viewBox="0 0 18 18" fill="none" xmlns="http://www.w3.org/2000/svg">
<path d="M5.3755 6.08223C5.9555 7.29025 6.74616 8.42245 7.74747 9.42376C8.74879 10.4251 9.88099 11.2157 11.089 11.7957C11.1929 11.8456 11.2449 11.8706 11.3106 11.8897C11.5442 11.9578 11.8311 11.9089 12.029 11.7672C12.0847 11.7274 12.1323 11.6797 12.2275 11.5845C12.5189 11.2931 12.6646 11.1475 12.811 11.0522C13.3634 10.6931 14.0756 10.6931 14.628 11.0522C14.7745 11.1475 14.9202 11.2931 15.2115 11.5845L15.3739 11.7469C15.8168 12.1897 16.0382 12.4112 16.1585 12.649C16.3977 13.122 16.3977 13.6805 16.1585 14.1535C16.0382 14.3913 15.8168 14.6127 15.3739 15.0556L15.2425 15.187C14.8012 15.6283 14.5805 15.849 14.2805 16.0175C13.9475 16.2046 13.4305 16.339 13.0486 16.3379C12.7045 16.3369 12.4693 16.2701 11.9989 16.1366C9.47111 15.4191 7.0858 14.0654 5.09582 12.0754C3.10584 10.0854 1.75211 7.70013 1.03463 5.1723C0.901128 4.70193 0.834374 4.46674 0.833351 4.12262C0.832214 3.74077 0.966683 3.22369 1.1537 2.89077C1.32224 2.59074 1.54292 2.37007 1.98427 1.92871L2.11563 1.79735C2.5585 1.35448 2.77993 1.13305 3.01775 1.01276C3.49072 0.773537 4.04927 0.773537 4.52224 1.01276C4.76006 1.13305 4.98149 1.35448 5.42436 1.79735L5.58675 1.95974C5.87809 2.25108 6.02376 2.39675 6.119 2.54323C6.47816 3.09564 6.47816 3.80779 6.119 4.3602C6.02376 4.50668 5.87809 4.65235 5.58675 4.94369C5.49149 5.03895 5.44386 5.08658 5.40399 5.14226C5.26232 5.34012 5.2134 5.627 5.2815 5.86063C5.30067 5.92637 5.32561 5.97832 5.3755 6.08223Z" stroke="#414141" stroke-width="1.66667" stroke-linecap="round" stroke-linejoin="round"/>
</svg>
