<svg width="28" height="28" viewBox="0 0 28 28" fill="none" xmlns="http://www.w3.org/2000/svg">
<path d="M14 20.4167H14.0116M9.56665 25.6667H18.4333C19.7401 25.6667 20.3935 25.6667 20.8926 25.4124C21.3317 25.1887 21.6886 24.8317 21.9123 24.3927C22.1666 23.8935 22.1666 23.2401 22.1666 21.9333V6.06668C22.1666 4.75989 22.1666 4.10649 21.9123 3.60737C21.6886 3.16832 21.3317 2.81137 20.8926 2.58766C20.3935 2.33334 19.7401 2.33334 18.4333 2.33334H9.56665C8.25986 2.33334 7.60646 2.33334 7.10734 2.58766C6.66829 2.81137 6.31134 3.16832 6.08763 3.60737C5.83331 4.10649 5.83331 4.75989 5.83331 6.06668V21.9333C5.83331 23.2401 5.83331 23.8935 6.08763 24.3927C6.31134 24.8317 6.66829 25.1887 7.10734 25.4124C7.60646 25.6667 8.25986 25.6667 9.56665 25.6667ZM14.5833 20.4167C14.5833 20.7388 14.3221 21 14 21C13.6778 21 13.4166 20.7388 13.4166 20.4167C13.4166 20.0945 13.6778 19.8333 14 19.8333C14.3221 19.8333 14.5833 20.0945 14.5833 20.4167Z" />
</svg>
