<svg width="429" height="434" viewBox="0 0 429 434" fill="none" xmlns="http://www.w3.org/2000/svg">
<mask id="mask0_2091_11809" style="mask-type:alpha" maskUnits="userSpaceOnUse" x="-27" y="-46" width="481" height="480">
<rect width="480" height="480" transform="translate(-26.5 -46)" fill="url(#paint0_radial_2091_11809)"/>
</mask>
<g mask="url(#mask0_2091_11809)">
<g clip-path="url(#clip0_2091_11809)">
<g clip-path="url(#clip1_2091_11809)">
<line x1="6" y1="-46" x2="6" y2="434"/>
<line x1="38" y1="-46" x2="38" y2="434"/>
<line x1="70" y1="-46" x2="70" y2="434"/>
<line x1="102" y1="-46" x2="102" y2="434"/>
<line x1="134" y1="-46" x2="134" y2="434"/>
<line x1="166" y1="-46" x2="166" y2="434"/>
<line x1="198" y1="-46" x2="198" y2="434"/>
<line x1="230" y1="-46" x2="230" y2="434"/>
<line x1="262" y1="-46" x2="262" y2="434"/>
<line x1="294" y1="-46" x2="294" y2="434"/>
<line x1="326" y1="-46" x2="326" y2="434"/>
<line x1="358" y1="-46" x2="358" y2="434"/>
<line x1="390" y1="-46" x2="390" y2="434"/>
<line x1="422" y1="-46" x2="422" y2="434"/>
</g>
<rect x="-26" y="-45.5" width="479" height="479"/>
<g clip-path="url(#clip2_2091_11809)">
<line x1="-26.5" y1="17.5" x2="453.5" y2="17.5"/>
<line x1="-26.5" y1="49.5" x2="453.5" y2="49.5"/>
<line x1="-26.5" y1="81.5" x2="453.5" y2="81.5"/>
<line x1="-26.5" y1="113.5" x2="453.5" y2="113.5"/>
<line x1="-26.5" y1="145.5" x2="453.5" y2="145.5"/>
<line x1="-26.5" y1="177.5" x2="453.5" y2="177.5"/>
<line x1="-26.5" y1="209.5" x2="453.5" y2="209.5"/>
<line x1="-26.5" y1="241.5" x2="453.5" y2="241.5"/>
<line x1="-26.5" y1="273.5" x2="453.5" y2="273.5"/>
<line x1="-26.5" y1="305.5" x2="453.5" y2="305.5"/>
<line x1="-26.5" y1="337.5" x2="453.5" y2="337.5"/>
<line x1="-26.5" y1="369.5" x2="453.5" y2="369.5"/>
<line x1="-26.5" y1="401.5" x2="453.5" y2="401.5"/>
<line x1="-26.5" y1="433.5" x2="453.5" y2="433.5"/>
</g>
<rect x="-26" y="-45.5" width="479" height="479"/>
</g>
</g>
<defs>
<radialGradient id="paint0_radial_2091_11809" cx="0" cy="0" r="1" gradientUnits="userSpaceOnUse" gradientTransform="translate(240 240) rotate(90) scale(240 240)">
<stop/>
<stop offset="1" stop-opacity="0"/>
</radialGradient>
<clipPath id="clip0_2091_11809">
<rect width="480" height="480" fill="white" transform="translate(-26.5 -46)"/>
</clipPath>
<clipPath id="clip1_2091_11809">
<rect x="-26.5" y="-46" width="480" height="480" fill="white"/>
</clipPath>
<clipPath id="clip2_2091_11809">
<rect x="-26.5" y="-46" width="480" height="480" fill="white"/>
</clipPath>
</defs>
</svg>
