<svg width="20" height="20" viewBox="0 0 20 20" fill="none" xmlns="http://www.w3.org/2000/svg">
<path d="M13.3334 15L15 16.6667L18.3334 13.3333M10 12.5H6.66669C5.11355 12.5 4.33698 12.5 3.72441 12.7537C2.90765 13.092 2.25874 13.741 1.92042 14.5577C1.66669 15.1703 1.66669 15.9469 1.66669 17.5M12.9167 2.7423C14.1383 3.23679 15 4.43443 15 5.83333C15 7.23224 14.1383 8.42988 12.9167 8.92437M11.25 5.83333C11.25 7.67428 9.75764 9.16667 7.91669 9.16667C6.07574 9.16667 4.58335 7.67428 4.58335 5.83333C4.58335 3.99238 6.07574 2.5 7.91669 2.5C9.75764 2.5 11.25 3.99238 11.25 5.83333Z" stroke-width="1.66667" stroke-linecap="round" stroke-linejoin="round"/>
</svg>
