<svg viewBox="0 0 163 81" fill="none" xmlns="http://www.w3.org/2000/svg">
<path d="M78.8741 36.3104H51.4097L62.0511 25.6653V32.5644L78.8741 32.5571V36.3104Z" fill="#006237"/>
<path d="M88.3171 36.3286H115.876L105.235 25.6762V32.5753H88.3171V36.3286Z" fill="#006237"/>
<path d="M78.8887 32.5717L81.5763 29.9131L69.7254 18.0461L74.3669 13.3945H59.6323L78.8887 32.5717Z" fill="#006237"/>
<path d="M88.3498 32.5753L85.6658 29.9168L97.5167 18.0497L92.8715 13.3982H107.606L88.3498 32.5753Z" fill="#006237"/>
<path d="M81.5763 29.9131H85.6658V13.3982H92.8388L83.5884 4.13513L74.3524 13.38H81.5763V29.9131Z" fill="#006237"/>
<path d="M13.863 44.2933C11.3897 44.2933 10.0858 44.9152 10.0858 45.9007C10.0858 46.4426 10.4308 46.8027 11.1245 47.05C12.4284 47.5082 14.3896 47.3628 16.8157 47.6719C19.7866 48.0501 21.2031 49.0648 21.2031 51.0505C21.2031 53.5454 18.9259 55.0038 14.6874 55.0038C11.6512 55.0038 9.30858 54.3637 7.57616 53.0035L8.66573 51.5742C10.5797 52.738 12.5264 53.2799 14.7056 53.2799C17.5421 53.2799 19.0602 52.458 19.0602 51.1778C19.0602 49.4867 17.03 49.4867 13.518 49.2576C9.83521 49.0175 7.9902 48.4429 7.9902 46.1626C7.9902 43.9478 10.1367 42.5512 14.0119 42.5512C16.5869 42.5512 18.7479 43.1404 20.4803 44.3078L19.2745 45.6353C17.4913 44.737 15.7443 44.2933 13.863 44.2933Z" fill="#1E1E1E"/>
<path d="M30.3773 44.6388V54.731H28.3979V44.6388H22.6885V42.8494H36.0866V44.6388H30.3773Z" fill="#1E1E1E"/>
<path d="M50.607 53.4981C49.2886 54.4837 47.44 55.0729 45.3589 55.0729C43.2814 55.0729 41.382 54.4655 40.0781 53.4799C38.4764 52.2834 37.6701 50.705 37.6701 48.7702C37.6701 46.8681 38.4946 45.2898 40.1108 44.0787C41.4473 43.0785 43.3105 42.4712 45.3589 42.4712C47.3891 42.4712 49.2705 43.0785 50.5888 44.0787C52.1905 45.2934 53.015 46.8863 53.015 48.7702C53.015 50.7087 52.205 52.3016 50.607 53.4981ZM49.1724 45.3916C48.2172 44.7042 46.8625 44.2751 45.3625 44.2751C42.0284 44.2751 39.7367 46.1771 39.7367 48.7702C39.7367 51.4433 41.9304 53.2654 45.3625 53.2654C48.7765 53.2654 50.9557 51.4288 50.9557 48.7702C50.952 47.3955 50.36 46.2608 49.1724 45.3916Z" fill="#1E1E1E"/>
<path d="M68.5922 54.731L59.4507 44.9843V54.731H57.4713V42.8494H59.9301L69.0535 52.5962V42.8494H71.0328V54.731H68.5922Z" fill="#1E1E1E"/>
<path d="M76.1175 54.731V42.8494H88.1609V44.6388H78.0969V47.6755H85.092V49.4612H78.0969V52.9417H88.6222V54.731H76.1175Z" fill="#1E1E1E"/>
<path d="M104.247 54.731V49.4612H94.6766V54.7274H92.6972V42.8458H94.6766V47.6719H104.247V42.8458H106.226V54.7274H104.247V54.731Z" fill="#1E1E1E"/>
<path d="M122.53 54.731L121.142 52.0725H113.108L111.721 54.731H109.56L115.88 42.8494H118.371L124.691 54.731H122.53ZM117.133 44.5406L114.082 50.2832H120.169L117.133 44.5406Z" fill="#1E1E1E"/>
<path d="M134.904 55.0729C132.826 55.0729 130.945 54.4655 129.641 53.4799C128.057 52.2834 127.247 50.705 127.247 48.7702C127.247 46.8681 128.057 45.2898 129.674 44.0787C131.025 43.0458 132.906 42.4712 135.067 42.4712C137.74 42.4712 139.803 43.3731 141.535 45.3443L139.687 46.2644C138.481 44.9843 136.948 44.2787 134.904 44.2787C133.418 44.2787 132.049 44.7042 131.094 45.3952C129.906 46.2644 129.31 47.3955 129.31 48.7739C129.31 51.4142 131.522 53.269 134.904 53.269C137.493 53.269 139.291 52.1707 140.05 50.1995H134.49V48.4102H142.523V48.592C142.527 52.4471 139.523 55.0729 134.904 55.0729Z" fill="#1E1E1E"/>
<path d="M146.983 54.731V42.8494H159.027V44.6388H148.963V47.6755H155.958V49.4612H148.963V52.9417H159.488V54.731H146.983Z" fill="#1E1E1E"/>
<path d="M31.6702 64.2305V67.2309H38.6617V68.9984H31.6702V74.2027H29.6908V62.4666H41.7306V64.2341H31.6702V64.2305Z" fill="#1E1E1E"/>
<path d="M45.0284 74.1991V62.463H47.0078V72.4316H56.2256V74.1991H45.0284Z" fill="#1E1E1E"/>
<path d="M59.4434 74.1991V62.463H71.4832V64.2305H61.4228V67.2309H68.4142V68.9984H61.4228V72.4352H71.9444V74.2027H59.4434V74.1991Z" fill="#1E1E1E"/>
<path d="M90.5834 74.1991V64.6014H90.5326L84.3329 72.2534L78.1804 64.6014H78.1296V74.1991H76.1502V62.463H78.609L84.3474 69.5621L90.104 62.463H92.5628V74.1991H90.5834Z" fill="#1E1E1E"/>
<path d="M97.7746 74.1991V62.463H99.754V74.1991H97.7746Z" fill="#1E1E1E"/>
<path d="M115.934 74.1991L106.796 64.5687V74.1991H104.817V62.463H107.276L116.395 72.0933V62.463H118.375V74.1991H115.934Z" fill="#1E1E1E"/>
<path d="M130.611 74.5373C128.533 74.5373 126.652 73.9372 125.348 72.9662C123.765 71.7842 122.958 70.2277 122.958 68.3147C122.958 66.4344 123.768 64.8778 125.384 63.6777C126.735 62.6557 128.617 62.0884 130.778 62.0884C133.451 62.0884 135.51 62.9794 137.243 64.9251L135.394 65.8343C134.188 64.5687 132.655 63.8741 130.611 63.8741C129.125 63.8741 127.756 64.2959 126.801 64.976C125.613 65.8343 125.021 66.9545 125.021 68.3147C125.021 70.9259 127.229 72.7553 130.611 72.7553C133.2 72.7553 134.998 71.6679 135.757 69.7258H130.2V67.9583H138.234V68.1365C138.234 71.9443 135.23 74.5373 130.611 74.5373Z" fill="#1E1E1E"/>
</svg>
