<svg width="1024" height="1024" viewBox="0 0 1024 1024" fill="none" xmlns="http://www.w3.org/2000/svg">
<path d="M480.221 485.676H297.1L368.068 415.313V460.915L480.221 460.867V485.676Z" fill="white"/>
<path d="M543.174 485.796H726.9L655.932 415.385V460.988H543.174V485.796Z" fill="white"/>
<path d="M480.318 460.964L498.211 443.391L419.205 364.95L450.173 334.204H351.942L480.318 460.964Z" fill="white"/>
<path d="M543.392 460.988L525.474 443.415L604.481 364.974L573.512 334.228H671.768L543.392 460.988Z" fill="white"/>
<path d="M498.211 443.415H525.474V334.228H573.294L511.625 273L450.076 334.132H498.211V443.415Z" fill="white"/>
<path d="M47.5399 551.087C31.051 551.087 22.3587 555.198 22.3587 561.712C22.3587 565.294 24.6589 567.674 29.2835 569.309C37.9759 572.338 51.0507 571.376 67.2248 573.419C87.0308 575.92 96.4737 582.627 96.4737 595.752C96.4737 612.243 81.2924 621.883 53.0361 621.883C32.7943 621.883 17.1771 617.652 5.62769 608.661L12.8915 599.214C25.6516 606.906 38.6296 610.488 53.1572 610.488C72.0673 610.488 82.1882 605.055 82.1882 596.593C82.1882 585.415 68.6533 585.415 45.2397 583.901C20.7122 582.266 8.38793 578.468 8.38793 563.395C8.38793 548.322 22.6976 539.524 48.5326 539.524C65.6994 539.524 80.1059 543.418 91.6554 551.135L83.6168 559.909C71.7284 553.948 60.082 551.015 47.5399 551.015V551.087Z" fill="white"/>
<path d="M157.635 553.371V620.08H144.439V553.371H106.377V541.543H195.697V553.371H157.635Z" fill="white"/>
<path d="M292.5 611.93C283.711 618.445 271.386 622.34 257.512 622.34C243.639 622.34 231 618.325 222.307 611.81C211.629 603.901 206.254 593.468 206.254 580.679C206.254 567.89 211.75 557.674 222.525 549.669C231.435 543.058 243.856 539.043 257.512 539.043C271.168 539.043 283.59 543.058 292.379 549.669C303.057 557.698 308.553 568.227 308.553 580.679C308.553 593.132 303.153 603.998 292.5 611.93ZM282.936 558.347C276.568 553.803 267.536 550.967 257.537 550.967C235.309 550.967 220.031 563.539 220.031 580.679C220.031 597.819 234.656 610.392 257.537 610.392C280.418 610.392 294.824 598.252 294.824 580.679C294.824 571.568 290.853 564.092 282.936 558.347Z" fill="white"/>
<path d="M412.401 620.056L351.458 555.63V620.056H338.262V541.519H354.654L415.476 605.945V541.519H428.672V620.056H412.401Z" fill="white"/>
<path d="M462.57 620.056V541.519H542.859V553.347H475.766V573.419H522.399V585.247H475.766V608.252H545.934V620.08H462.57V620.056Z" fill="white"/>
<path d="M650.097 620.056V585.247H586.297V620.056H573.101V541.519H586.297V573.419H650.097V541.519H663.293V620.056H650.097Z" fill="white"/>
<path d="M771.984 620.056L762.735 602.483H709.176L699.927 620.056H685.52L727.65 541.519H744.26L786.39 620.056H771.984ZM736.004 552.698L715.665 590.656H756.246L736.004 552.698Z" fill="white"/>
<path d="M854.476 622.34C840.627 622.34 828.085 618.325 819.392 611.81C808.836 603.901 803.436 593.468 803.436 580.679C803.436 567.89 808.836 557.674 819.61 549.669C828.617 542.841 841.16 539.043 855.566 539.043C873.387 539.043 887.139 545.005 898.689 558.034L886.365 564.116C878.326 555.654 868.108 550.991 854.476 550.991C844.574 550.991 835.445 553.803 829.077 558.371C821.16 564.116 817.189 571.592 817.189 580.703C817.189 598.156 831.934 610.416 854.476 610.416C871.74 610.416 883.725 603.156 888.786 590.127H851.716V578.299H905.275V579.501C905.275 604.983 885.251 622.34 854.452 622.34H854.476Z" fill="white"/>
<path d="M935.008 620.056V541.519H1015.3V553.347H948.204V573.419H994.838V585.247H948.204V608.252H1018.37V620.08H935.008V620.056Z" fill="white"/>
<path d="M166.255 682.847V702.679H212.864V714.362H166.255V748.762H153.059V671.187H233.324V682.871H166.255V682.847Z" fill="white"/>
<path d="M255.309 748.738V671.163H268.505V737.055H329.957V748.738H255.309Z" fill="white"/>
<path d="M351.409 748.738V671.163H431.674V682.847H364.605V702.679H411.215V714.362H364.605V737.079H434.749V748.762H351.409V748.738Z" fill="white"/>
<path d="M559.009 748.738V685.299H558.67L517.339 735.877L476.322 685.299H475.984V748.738H462.788V671.163H479.18L517.436 718.088L555.813 671.163H572.205V748.738H559.009Z" fill="white"/>
<path d="M606.95 748.738V671.163H620.146V748.738H606.95Z" fill="white"/>
<path d="M728.014 748.738L667.094 685.082V748.738H653.898V671.163H670.29L731.089 734.82V671.163H744.284V748.738H728.014Z" fill="white"/>
<path d="M825.881 750.998C812.032 750.998 799.49 747.032 790.797 740.613C780.24 732.8 774.865 722.511 774.865 709.867C774.865 697.222 780.265 687.15 791.039 679.217C800.046 672.462 812.589 668.711 826.995 668.711C844.816 668.711 858.544 674.601 870.094 687.462L857.77 693.472C849.731 685.106 839.513 680.515 825.881 680.515C815.978 680.515 806.85 683.303 800.482 687.799C792.565 693.472 788.618 700.876 788.618 709.867C788.618 727.127 803.339 739.219 825.881 739.219C843.145 739.219 855.13 732.031 860.191 719.194H823.145V707.511H876.704V708.689C876.704 733.858 856.68 751.022 825.906 751.022L825.881 750.998Z" fill="white"/>
</svg>
